<mxfile host="app.diagrams.net" modified="2024-05-31T13:18:30.319Z" agent="Mozilla/5.0 (Windows NT 10.0; Win64; x64) AppleWebKit/537.36 (KHTML, like Gecko) Chrome/125.0.0.0 Safari/537.36" etag="ALHjm_l4ZFdCFVSbAS3n" version="24.4.9" type="github">
  <diagram name="Page-1" id="2H29EWDQLwBMjzJSIUJ8">
    <mxGraphModel dx="653" dy="1885" grid="1" gridSize="10" guides="1" tooltips="1" connect="1" arrows="1" fold="1" page="1" pageScale="1" pageWidth="827" pageHeight="1169" math="0" shadow="0">
      <root>
        <mxCell id="0" />
        <mxCell id="1" parent="0" />
        <mxCell id="uI2IkdQqm4IqA6u9Eot--28" value="0" style="rounded=0;whiteSpace=wrap;html=1;" vertex="1" parent="1">
          <mxGeometry x="80" y="110" width="40" height="30" as="geometry" />
        </mxCell>
        <mxCell id="uI2IkdQqm4IqA6u9Eot--29" value="DEBUT" style="rounded=0;whiteSpace=wrap;html=1;" vertex="1" parent="1">
          <mxGeometry x="80" y="140" width="110" height="30" as="geometry" />
        </mxCell>
        <mxCell id="uI2IkdQqm4IqA6u9Eot--30" value="0" style="rounded=0;whiteSpace=wrap;html=1;" vertex="1" parent="1">
          <mxGeometry x="120" y="110" width="70" height="30" as="geometry" />
        </mxCell>
        <mxCell id="uI2IkdQqm4IqA6u9Eot--61" value="0" style="rounded=0;whiteSpace=wrap;html=1;" vertex="1" parent="1">
          <mxGeometry x="250" y="-80" width="40" height="30" as="geometry" />
        </mxCell>
        <mxCell id="uI2IkdQqm4IqA6u9Eot--62" value="A" style="rounded=0;whiteSpace=wrap;html=1;" vertex="1" parent="1">
          <mxGeometry x="250" y="-50" width="110" height="30" as="geometry" />
        </mxCell>
        <mxCell id="uI2IkdQqm4IqA6u9Eot--63" value="" style="rounded=0;whiteSpace=wrap;html=1;" vertex="1" parent="1">
          <mxGeometry x="290" y="-80" width="70" height="30" as="geometry" />
        </mxCell>
        <mxCell id="uI2IkdQqm4IqA6u9Eot--64" value="0" style="rounded=0;whiteSpace=wrap;html=1;" vertex="1" parent="1">
          <mxGeometry x="260" y="297.28999999999996" width="40" height="30" as="geometry" />
        </mxCell>
        <mxCell id="uI2IkdQqm4IqA6u9Eot--65" value="F" style="rounded=0;whiteSpace=wrap;html=1;" vertex="1" parent="1">
          <mxGeometry x="260" y="327.28999999999996" width="110" height="30" as="geometry" />
        </mxCell>
        <mxCell id="uI2IkdQqm4IqA6u9Eot--66" value="" style="rounded=0;whiteSpace=wrap;html=1;" vertex="1" parent="1">
          <mxGeometry x="300" y="297.28999999999996" width="70" height="30" as="geometry" />
        </mxCell>
        <mxCell id="uI2IkdQqm4IqA6u9Eot--67" value="1" style="rounded=0;whiteSpace=wrap;html=1;" vertex="1" parent="1">
          <mxGeometry x="470" y="-10" width="40" height="30" as="geometry" />
        </mxCell>
        <mxCell id="uI2IkdQqm4IqA6u9Eot--68" value="B" style="rounded=0;whiteSpace=wrap;html=1;" vertex="1" parent="1">
          <mxGeometry x="470" y="20" width="110" height="30" as="geometry" />
        </mxCell>
        <mxCell id="uI2IkdQqm4IqA6u9Eot--69" value="" style="rounded=0;whiteSpace=wrap;html=1;" vertex="1" parent="1">
          <mxGeometry x="510" y="-10" width="70" height="30" as="geometry" />
        </mxCell>
        <mxCell id="uI2IkdQqm4IqA6u9Eot--70" value="4" style="rounded=0;whiteSpace=wrap;html=1;" vertex="1" parent="1">
          <mxGeometry x="590" y="160" width="40" height="30" as="geometry" />
        </mxCell>
        <mxCell id="uI2IkdQqm4IqA6u9Eot--71" value="G" style="rounded=0;whiteSpace=wrap;html=1;" vertex="1" parent="1">
          <mxGeometry x="590" y="190" width="110" height="30" as="geometry" />
        </mxCell>
        <mxCell id="uI2IkdQqm4IqA6u9Eot--72" value="" style="rounded=0;whiteSpace=wrap;html=1;" vertex="1" parent="1">
          <mxGeometry x="630" y="160" width="70" height="30" as="geometry" />
        </mxCell>
        <mxCell id="uI2IkdQqm4IqA6u9Eot--73" value="4" style="rounded=0;whiteSpace=wrap;html=1;" vertex="1" parent="1">
          <mxGeometry x="700" y="-100" width="40" height="30" as="geometry" />
        </mxCell>
        <mxCell id="uI2IkdQqm4IqA6u9Eot--74" value="C" style="rounded=0;whiteSpace=wrap;html=1;" vertex="1" parent="1">
          <mxGeometry x="700" y="-70" width="110" height="30" as="geometry" />
        </mxCell>
        <mxCell id="uI2IkdQqm4IqA6u9Eot--75" value="" style="rounded=0;whiteSpace=wrap;html=1;" vertex="1" parent="1">
          <mxGeometry x="740" y="-100" width="70" height="30" as="geometry" />
        </mxCell>
        <mxCell id="uI2IkdQqm4IqA6u9Eot--79" value="" style="endArrow=classic;html=1;rounded=0;exitX=1;exitY=0;exitDx=0;exitDy=0;entryX=0;entryY=1;entryDx=0;entryDy=0;" edge="1" parent="1" source="uI2IkdQqm4IqA6u9Eot--62" target="uI2IkdQqm4IqA6u9Eot--67">
          <mxGeometry width="50" height="50" relative="1" as="geometry">
            <mxPoint x="430" y="100" as="sourcePoint" />
            <mxPoint x="480" y="50" as="targetPoint" />
          </mxGeometry>
        </mxCell>
        <mxCell id="uI2IkdQqm4IqA6u9Eot--80" value="1" style="edgeLabel;html=1;align=center;verticalAlign=middle;resizable=0;points=[];" vertex="1" connectable="0" parent="uI2IkdQqm4IqA6u9Eot--79">
          <mxGeometry x="0.0662" y="-1" relative="1" as="geometry">
            <mxPoint y="-16" as="offset" />
          </mxGeometry>
        </mxCell>
        <mxCell id="uI2IkdQqm4IqA6u9Eot--81" value="" style="endArrow=classic;html=1;rounded=0;exitX=1;exitY=1;exitDx=0;exitDy=0;entryX=0;entryY=0;entryDx=0;entryDy=0;" edge="1" parent="1" source="uI2IkdQqm4IqA6u9Eot--66" target="uI2IkdQqm4IqA6u9Eot--71">
          <mxGeometry width="50" height="50" relative="1" as="geometry">
            <mxPoint x="380" y="180" as="sourcePoint" />
            <mxPoint x="490" y="180" as="targetPoint" />
          </mxGeometry>
        </mxCell>
        <mxCell id="uI2IkdQqm4IqA6u9Eot--145" value="3" style="edgeLabel;html=1;align=center;verticalAlign=middle;resizable=0;points=[];" vertex="1" connectable="0" parent="uI2IkdQqm4IqA6u9Eot--81">
          <mxGeometry x="0.0413" relative="1" as="geometry">
            <mxPoint x="-15" y="-11" as="offset" />
          </mxGeometry>
        </mxCell>
        <mxCell id="uI2IkdQqm4IqA6u9Eot--83" value="23" style="rounded=0;whiteSpace=wrap;html=1;" vertex="1" parent="1">
          <mxGeometry x="1180" y="350" width="40" height="30" as="geometry" />
        </mxCell>
        <mxCell id="uI2IkdQqm4IqA6u9Eot--84" value="L" style="rounded=0;whiteSpace=wrap;html=1;" vertex="1" parent="1">
          <mxGeometry x="1180" y="380" width="110" height="30" as="geometry" />
        </mxCell>
        <mxCell id="uI2IkdQqm4IqA6u9Eot--85" value="" style="rounded=0;whiteSpace=wrap;html=1;" vertex="1" parent="1">
          <mxGeometry x="1220" y="350" width="70" height="30" as="geometry" />
        </mxCell>
        <mxCell id="uI2IkdQqm4IqA6u9Eot--86" value="27" style="rounded=0;whiteSpace=wrap;html=1;" vertex="1" parent="1">
          <mxGeometry x="1310" y="480" width="40" height="30" as="geometry" />
        </mxCell>
        <mxCell id="uI2IkdQqm4IqA6u9Eot--87" value="M" style="rounded=0;whiteSpace=wrap;html=1;" vertex="1" parent="1">
          <mxGeometry x="1310" y="510" width="110" height="30" as="geometry" />
        </mxCell>
        <mxCell id="uI2IkdQqm4IqA6u9Eot--88" value="" style="rounded=0;whiteSpace=wrap;html=1;" vertex="1" parent="1">
          <mxGeometry x="1350" y="480" width="70" height="30" as="geometry" />
        </mxCell>
        <mxCell id="uI2IkdQqm4IqA6u9Eot--89" value="" style="endArrow=classic;html=1;rounded=0;exitX=1;exitY=1;exitDx=0;exitDy=0;entryX=0;entryY=0;entryDx=0;entryDy=0;" edge="1" parent="1" source="uI2IkdQqm4IqA6u9Eot--69" target="uI2IkdQqm4IqA6u9Eot--71">
          <mxGeometry width="50" height="50" relative="1" as="geometry">
            <mxPoint x="390" y="200" as="sourcePoint" />
            <mxPoint x="705" y="170" as="targetPoint" />
          </mxGeometry>
        </mxCell>
        <mxCell id="uI2IkdQqm4IqA6u9Eot--90" value="3" style="edgeLabel;html=1;align=center;verticalAlign=middle;resizable=0;points=[];" vertex="1" connectable="0" parent="uI2IkdQqm4IqA6u9Eot--89">
          <mxGeometry x="0.0662" y="-1" relative="1" as="geometry">
            <mxPoint y="-16" as="offset" />
          </mxGeometry>
        </mxCell>
        <mxCell id="uI2IkdQqm4IqA6u9Eot--91" value="" style="endArrow=classic;html=1;rounded=0;exitX=1;exitY=1;exitDx=0;exitDy=0;entryX=0;entryY=0;entryDx=0;entryDy=0;" edge="1" parent="1" source="uI2IkdQqm4IqA6u9Eot--69" target="uI2IkdQqm4IqA6u9Eot--74">
          <mxGeometry width="50" height="50" relative="1" as="geometry">
            <mxPoint x="610" y="110" as="sourcePoint" />
            <mxPoint x="705" y="170" as="targetPoint" />
          </mxGeometry>
        </mxCell>
        <mxCell id="uI2IkdQqm4IqA6u9Eot--92" value="3" style="edgeLabel;html=1;align=center;verticalAlign=middle;resizable=0;points=[];" vertex="1" connectable="0" parent="uI2IkdQqm4IqA6u9Eot--91">
          <mxGeometry x="0.0662" y="-1" relative="1" as="geometry">
            <mxPoint y="-16" as="offset" />
          </mxGeometry>
        </mxCell>
        <mxCell id="uI2IkdQqm4IqA6u9Eot--93" value="5" style="rounded=0;whiteSpace=wrap;html=1;" vertex="1" parent="1">
          <mxGeometry x="970" y="70" width="40" height="30" as="geometry" />
        </mxCell>
        <mxCell id="uI2IkdQqm4IqA6u9Eot--94" value="E" style="rounded=0;whiteSpace=wrap;html=1;" vertex="1" parent="1">
          <mxGeometry x="970" y="100" width="110" height="30" as="geometry" />
        </mxCell>
        <mxCell id="uI2IkdQqm4IqA6u9Eot--95" value="" style="rounded=0;whiteSpace=wrap;html=1;" vertex="1" parent="1">
          <mxGeometry x="1010" y="70" width="70" height="30" as="geometry" />
        </mxCell>
        <mxCell id="uI2IkdQqm4IqA6u9Eot--96" value="1" style="rounded=0;whiteSpace=wrap;html=1;" vertex="1" parent="1">
          <mxGeometry x="500" y="-220" width="40" height="30" as="geometry" />
        </mxCell>
        <mxCell id="uI2IkdQqm4IqA6u9Eot--97" value="I" style="rounded=0;whiteSpace=wrap;html=1;" vertex="1" parent="1">
          <mxGeometry x="500" y="-190" width="110" height="30" as="geometry" />
        </mxCell>
        <mxCell id="uI2IkdQqm4IqA6u9Eot--98" value="" style="rounded=0;whiteSpace=wrap;html=1;" vertex="1" parent="1">
          <mxGeometry x="540" y="-220" width="70" height="30" as="geometry" />
        </mxCell>
        <mxCell id="uI2IkdQqm4IqA6u9Eot--99" value="" style="endArrow=classic;html=1;rounded=0;exitX=1;exitY=1;exitDx=0;exitDy=0;entryX=0;entryY=0;entryDx=0;entryDy=0;" edge="1" parent="1" source="uI2IkdQqm4IqA6u9Eot--98" target="uI2IkdQqm4IqA6u9Eot--73">
          <mxGeometry width="50" height="50" relative="1" as="geometry">
            <mxPoint x="569.59" y="-172.38" as="sourcePoint" />
            <mxPoint x="729.59" y="-112.38" as="targetPoint" />
          </mxGeometry>
        </mxCell>
        <mxCell id="uI2IkdQqm4IqA6u9Eot--100" value="2" style="edgeLabel;html=1;align=center;verticalAlign=middle;resizable=0;points=[];" vertex="1" connectable="0" parent="uI2IkdQqm4IqA6u9Eot--99">
          <mxGeometry x="0.0662" y="-1" relative="1" as="geometry">
            <mxPoint y="-16" as="offset" />
          </mxGeometry>
        </mxCell>
        <mxCell id="uI2IkdQqm4IqA6u9Eot--101" value="" style="endArrow=classic;html=1;rounded=0;exitX=1;exitY=0;exitDx=0;exitDy=0;entryX=0;entryY=0;entryDx=0;entryDy=0;" edge="1" parent="1" source="uI2IkdQqm4IqA6u9Eot--74" target="uI2IkdQqm4IqA6u9Eot--94">
          <mxGeometry width="50" height="50" relative="1" as="geometry">
            <mxPoint x="820" y="70" as="sourcePoint" />
            <mxPoint x="920" y="10" as="targetPoint" />
          </mxGeometry>
        </mxCell>
        <mxCell id="uI2IkdQqm4IqA6u9Eot--102" value="1" style="edgeLabel;html=1;align=center;verticalAlign=middle;resizable=0;points=[];" vertex="1" connectable="0" parent="uI2IkdQqm4IqA6u9Eot--101">
          <mxGeometry x="0.0662" y="-1" relative="1" as="geometry">
            <mxPoint y="-16" as="offset" />
          </mxGeometry>
        </mxCell>
        <mxCell id="uI2IkdQqm4IqA6u9Eot--103" value="5" style="rounded=0;whiteSpace=wrap;html=1;" vertex="1" parent="1">
          <mxGeometry x="870" y="312.28999999999996" width="40" height="30" as="geometry" />
        </mxCell>
        <mxCell id="uI2IkdQqm4IqA6u9Eot--104" value="H" style="rounded=0;whiteSpace=wrap;html=1;" vertex="1" parent="1">
          <mxGeometry x="870" y="342.28999999999996" width="110" height="30" as="geometry" />
        </mxCell>
        <mxCell id="uI2IkdQqm4IqA6u9Eot--105" value="" style="rounded=0;whiteSpace=wrap;html=1;" vertex="1" parent="1">
          <mxGeometry x="910" y="312.28999999999996" width="70" height="30" as="geometry" />
        </mxCell>
        <mxCell id="uI2IkdQqm4IqA6u9Eot--106" value="15" style="rounded=0;whiteSpace=wrap;html=1;" vertex="1" parent="1">
          <mxGeometry x="1060" y="230" width="40" height="30" as="geometry" />
        </mxCell>
        <mxCell id="uI2IkdQqm4IqA6u9Eot--107" value="K" style="rounded=0;whiteSpace=wrap;html=1;" vertex="1" parent="1">
          <mxGeometry x="1060" y="260" width="110" height="30" as="geometry" />
        </mxCell>
        <mxCell id="uI2IkdQqm4IqA6u9Eot--108" value="" style="rounded=0;whiteSpace=wrap;html=1;" vertex="1" parent="1">
          <mxGeometry x="1100" y="230" width="70" height="30" as="geometry" />
        </mxCell>
        <mxCell id="uI2IkdQqm4IqA6u9Eot--109" value="" style="endArrow=classic;html=1;rounded=0;exitX=1;exitY=0;exitDx=0;exitDy=0;entryX=0;entryY=1;entryDx=0;entryDy=0;" edge="1" parent="1" source="uI2IkdQqm4IqA6u9Eot--71" target="uI2IkdQqm4IqA6u9Eot--103">
          <mxGeometry width="50" height="50" relative="1" as="geometry">
            <mxPoint x="820" y="70" as="sourcePoint" />
            <mxPoint x="930" y="10" as="targetPoint" />
          </mxGeometry>
        </mxCell>
        <mxCell id="uI2IkdQqm4IqA6u9Eot--110" value="0" style="edgeLabel;html=1;align=center;verticalAlign=middle;resizable=0;points=[];" vertex="1" connectable="0" parent="uI2IkdQqm4IqA6u9Eot--109">
          <mxGeometry x="0.0662" y="-1" relative="1" as="geometry">
            <mxPoint y="-16" as="offset" />
          </mxGeometry>
        </mxCell>
        <mxCell id="uI2IkdQqm4IqA6u9Eot--111" value="" style="endArrow=classic;html=1;rounded=0;exitX=0.25;exitY=1;exitDx=0;exitDy=0;entryX=0.5;entryY=0;entryDx=0;entryDy=0;" edge="1" parent="1" source="uI2IkdQqm4IqA6u9Eot--94" target="uI2IkdQqm4IqA6u9Eot--105">
          <mxGeometry width="50" height="50" relative="1" as="geometry">
            <mxPoint x="1040" y="10" as="sourcePoint" />
            <mxPoint x="1112" y="100" as="targetPoint" />
          </mxGeometry>
        </mxCell>
        <mxCell id="uI2IkdQqm4IqA6u9Eot--112" value="0" style="edgeLabel;html=1;align=center;verticalAlign=middle;resizable=0;points=[];" vertex="1" connectable="0" parent="uI2IkdQqm4IqA6u9Eot--111">
          <mxGeometry x="0.0662" y="-1" relative="1" as="geometry">
            <mxPoint y="-16" as="offset" />
          </mxGeometry>
        </mxCell>
        <mxCell id="uI2IkdQqm4IqA6u9Eot--113" value="33" style="rounded=0;whiteSpace=wrap;html=1;" vertex="1" parent="1">
          <mxGeometry x="840" y="510" width="40" height="30" as="geometry" />
        </mxCell>
        <mxCell id="uI2IkdQqm4IqA6u9Eot--114" value="N" style="rounded=0;whiteSpace=wrap;html=1;" vertex="1" parent="1">
          <mxGeometry x="840" y="540" width="110" height="30" as="geometry" />
        </mxCell>
        <mxCell id="uI2IkdQqm4IqA6u9Eot--115" value="" style="rounded=0;whiteSpace=wrap;html=1;" vertex="1" parent="1">
          <mxGeometry x="880" y="510" width="70" height="30" as="geometry" />
        </mxCell>
        <mxCell id="uI2IkdQqm4IqA6u9Eot--116" value="33" style="rounded=0;whiteSpace=wrap;html=1;" vertex="1" parent="1">
          <mxGeometry x="1040" y="585" width="40" height="30" as="geometry" />
        </mxCell>
        <mxCell id="uI2IkdQqm4IqA6u9Eot--117" value="0" style="rounded=0;whiteSpace=wrap;html=1;" vertex="1" parent="1">
          <mxGeometry x="1040" y="615" width="110" height="30" as="geometry" />
        </mxCell>
        <mxCell id="uI2IkdQqm4IqA6u9Eot--118" value="" style="rounded=0;whiteSpace=wrap;html=1;" vertex="1" parent="1">
          <mxGeometry x="1080" y="585" width="70" height="30" as="geometry" />
        </mxCell>
        <mxCell id="uI2IkdQqm4IqA6u9Eot--119" value="" style="endArrow=classic;html=1;rounded=0;exitX=1;exitY=0;exitDx=0;exitDy=0;entryX=0;entryY=0;entryDx=0;entryDy=0;" edge="1" parent="1" source="uI2IkdQqm4IqA6u9Eot--104" target="uI2IkdQqm4IqA6u9Eot--107">
          <mxGeometry width="50" height="50" relative="1" as="geometry">
            <mxPoint x="915" y="250" as="sourcePoint" />
            <mxPoint x="1120" y="295" as="targetPoint" />
          </mxGeometry>
        </mxCell>
        <mxCell id="uI2IkdQqm4IqA6u9Eot--120" value="8" style="edgeLabel;html=1;align=center;verticalAlign=middle;resizable=0;points=[];" vertex="1" connectable="0" parent="uI2IkdQqm4IqA6u9Eot--119">
          <mxGeometry x="0.0662" y="-1" relative="1" as="geometry">
            <mxPoint y="-16" as="offset" />
          </mxGeometry>
        </mxCell>
        <mxCell id="uI2IkdQqm4IqA6u9Eot--121" value="" style="endArrow=classic;html=1;rounded=0;exitX=1;exitY=0;exitDx=0;exitDy=0;entryX=0;entryY=0;entryDx=0;entryDy=0;" edge="1" parent="1" source="uI2IkdQqm4IqA6u9Eot--107" target="uI2IkdQqm4IqA6u9Eot--84">
          <mxGeometry width="50" height="50" relative="1" as="geometry">
            <mxPoint x="1000" y="225" as="sourcePoint" />
            <mxPoint x="1070" y="270" as="targetPoint" />
          </mxGeometry>
        </mxCell>
        <mxCell id="uI2IkdQqm4IqA6u9Eot--122" value="8" style="edgeLabel;html=1;align=center;verticalAlign=middle;resizable=0;points=[];" vertex="1" connectable="0" parent="uI2IkdQqm4IqA6u9Eot--121">
          <mxGeometry x="0.0662" y="-1" relative="1" as="geometry">
            <mxPoint y="-16" as="offset" />
          </mxGeometry>
        </mxCell>
        <mxCell id="uI2IkdQqm4IqA6u9Eot--123" value="" style="endArrow=classic;html=1;rounded=0;exitX=1;exitY=0.25;exitDx=0;exitDy=0;entryX=0;entryY=0;entryDx=0;entryDy=0;" edge="1" parent="1" source="uI2IkdQqm4IqA6u9Eot--84" target="uI2IkdQqm4IqA6u9Eot--87">
          <mxGeometry width="50" height="50" relative="1" as="geometry">
            <mxPoint x="1120" y="320" as="sourcePoint" />
            <mxPoint x="1190" y="390" as="targetPoint" />
          </mxGeometry>
        </mxCell>
        <mxCell id="uI2IkdQqm4IqA6u9Eot--124" value="4" style="edgeLabel;html=1;align=center;verticalAlign=middle;resizable=0;points=[];" vertex="1" connectable="0" parent="uI2IkdQqm4IqA6u9Eot--123">
          <mxGeometry x="0.0662" y="-1" relative="1" as="geometry">
            <mxPoint y="-16" as="offset" />
          </mxGeometry>
        </mxCell>
        <mxCell id="uI2IkdQqm4IqA6u9Eot--125" value="" style="endArrow=classic;html=1;rounded=0;exitX=1;exitY=0;exitDx=0;exitDy=0;entryX=0;entryY=0.75;entryDx=0;entryDy=0;" edge="1" parent="1" source="uI2IkdQqm4IqA6u9Eot--87" target="uI2IkdQqm4IqA6u9Eot--113">
          <mxGeometry width="50" height="50" relative="1" as="geometry">
            <mxPoint x="1490" y="338" as="sourcePoint" />
            <mxPoint x="1530" y="390" as="targetPoint" />
          </mxGeometry>
        </mxCell>
        <mxCell id="uI2IkdQqm4IqA6u9Eot--126" value="6" style="edgeLabel;html=1;align=center;verticalAlign=middle;resizable=0;points=[];" vertex="1" connectable="0" parent="uI2IkdQqm4IqA6u9Eot--125">
          <mxGeometry x="0.0662" y="-1" relative="1" as="geometry">
            <mxPoint y="-16" as="offset" />
          </mxGeometry>
        </mxCell>
        <mxCell id="uI2IkdQqm4IqA6u9Eot--129" value="" style="endArrow=classic;html=1;rounded=0;exitX=1;exitY=0;exitDx=0;exitDy=0;entryX=0;entryY=0;entryDx=0;entryDy=0;" edge="1" parent="1" source="uI2IkdQqm4IqA6u9Eot--114" target="uI2IkdQqm4IqA6u9Eot--117">
          <mxGeometry width="50" height="50" relative="1" as="geometry">
            <mxPoint x="760" y="535" as="sourcePoint" />
            <mxPoint x="850" y="543" as="targetPoint" />
          </mxGeometry>
        </mxCell>
        <mxCell id="uI2IkdQqm4IqA6u9Eot--130" value="0" style="edgeLabel;html=1;align=center;verticalAlign=middle;resizable=0;points=[];" vertex="1" connectable="0" parent="uI2IkdQqm4IqA6u9Eot--129">
          <mxGeometry x="0.0662" y="-1" relative="1" as="geometry">
            <mxPoint y="-16" as="offset" />
          </mxGeometry>
        </mxCell>
        <mxCell id="uI2IkdQqm4IqA6u9Eot--131" value="34" style="rounded=0;whiteSpace=wrap;html=1;" vertex="1" parent="1">
          <mxGeometry x="1210" y="585" width="40" height="30" as="geometry" />
        </mxCell>
        <mxCell id="uI2IkdQqm4IqA6u9Eot--132" value="FIN" style="rounded=0;whiteSpace=wrap;html=1;" vertex="1" parent="1">
          <mxGeometry x="1210" y="615" width="110" height="30" as="geometry" />
        </mxCell>
        <mxCell id="uI2IkdQqm4IqA6u9Eot--133" value="" style="rounded=0;whiteSpace=wrap;html=1;" vertex="1" parent="1">
          <mxGeometry x="1250" y="585" width="70" height="30" as="geometry" />
        </mxCell>
        <mxCell id="uI2IkdQqm4IqA6u9Eot--139" value="" style="endArrow=classic;html=1;rounded=0;exitX=1;exitY=1;exitDx=0;exitDy=0;entryX=0;entryY=0;entryDx=0;entryDy=0;" edge="1" parent="1" source="uI2IkdQqm4IqA6u9Eot--118" target="uI2IkdQqm4IqA6u9Eot--132">
          <mxGeometry width="50" height="50" relative="1" as="geometry">
            <mxPoint x="1120" y="585" as="sourcePoint" />
            <mxPoint x="1210" y="660" as="targetPoint" />
          </mxGeometry>
        </mxCell>
        <mxCell id="uI2IkdQqm4IqA6u9Eot--140" value="1" style="edgeLabel;html=1;align=center;verticalAlign=middle;resizable=0;points=[];" vertex="1" connectable="0" parent="uI2IkdQqm4IqA6u9Eot--139">
          <mxGeometry x="0.0662" y="-1" relative="1" as="geometry">
            <mxPoint y="-16" as="offset" />
          </mxGeometry>
        </mxCell>
        <mxCell id="uI2IkdQqm4IqA6u9Eot--141" value="" style="endArrow=classic;html=1;rounded=0;exitX=1;exitY=1;exitDx=0;exitDy=0;entryX=0;entryY=0.25;entryDx=0;entryDy=0;" edge="1" parent="1" source="uI2IkdQqm4IqA6u9Eot--30" target="uI2IkdQqm4IqA6u9Eot--62">
          <mxGeometry width="50" height="50" relative="1" as="geometry">
            <mxPoint x="390" y="110" as="sourcePoint" />
            <mxPoint x="500" y="110" as="targetPoint" />
          </mxGeometry>
        </mxCell>
        <mxCell id="uI2IkdQqm4IqA6u9Eot--142" value="0" style="edgeLabel;html=1;align=center;verticalAlign=middle;resizable=0;points=[];" vertex="1" connectable="0" parent="uI2IkdQqm4IqA6u9Eot--141">
          <mxGeometry x="0.0662" y="-1" relative="1" as="geometry">
            <mxPoint x="-23" y="-23" as="offset" />
          </mxGeometry>
        </mxCell>
        <mxCell id="uI2IkdQqm4IqA6u9Eot--143" value="" style="endArrow=classic;html=1;rounded=0;exitX=1;exitY=0;exitDx=0;exitDy=0;entryX=0;entryY=1;entryDx=0;entryDy=0;" edge="1" parent="1" source="uI2IkdQqm4IqA6u9Eot--29" target="uI2IkdQqm4IqA6u9Eot--64">
          <mxGeometry width="50" height="50" relative="1" as="geometry">
            <mxPoint x="400" y="120" as="sourcePoint" />
            <mxPoint x="510" y="120" as="targetPoint" />
          </mxGeometry>
        </mxCell>
        <mxCell id="uI2IkdQqm4IqA6u9Eot--144" value="0" style="edgeLabel;html=1;align=center;verticalAlign=middle;resizable=0;points=[];" vertex="1" connectable="0" parent="uI2IkdQqm4IqA6u9Eot--143">
          <mxGeometry x="0.0662" y="-1" relative="1" as="geometry">
            <mxPoint x="13" y="-21" as="offset" />
          </mxGeometry>
        </mxCell>
        <mxCell id="uI2IkdQqm4IqA6u9Eot--147" value="" style="endArrow=classic;html=1;rounded=0;exitX=1;exitY=0.75;exitDx=0;exitDy=0;entryX=0;entryY=1;entryDx=0;entryDy=0;" edge="1" parent="1" source="uI2IkdQqm4IqA6u9Eot--63" target="uI2IkdQqm4IqA6u9Eot--96">
          <mxGeometry width="50" height="50" relative="1" as="geometry">
            <mxPoint x="370" y="-40" as="sourcePoint" />
            <mxPoint x="480" y="30" as="targetPoint" />
          </mxGeometry>
        </mxCell>
        <mxCell id="uI2IkdQqm4IqA6u9Eot--148" value="1" style="edgeLabel;html=1;align=center;verticalAlign=middle;resizable=0;points=[];" vertex="1" connectable="0" parent="uI2IkdQqm4IqA6u9Eot--147">
          <mxGeometry x="0.0662" y="-1" relative="1" as="geometry">
            <mxPoint y="-16" as="offset" />
          </mxGeometry>
        </mxCell>
      </root>
    </mxGraphModel>
  </diagram>
</mxfile>
